<mxfile host="app.diagrams.net" modified="2024-04-09T18:55:57.568Z" agent="Mozilla/5.0 (Windows NT 10.0; Win64; x64) AppleWebKit/537.36 (KHTML, like Gecko) Chrome/123.0.0.0 Safari/537.36 Edg/123.0.0.0" etag="y4ctt4VDmofN3OdFFRAW" version="24.2.3" type="github">
  <diagram name="Seite-1" id="8ofZRbVmw3vYyGgvCZx4">
    <mxGraphModel dx="891" dy="529" grid="1" gridSize="10" guides="1" tooltips="1" connect="1" arrows="1" fold="1" page="1" pageScale="1" pageWidth="1169" pageHeight="827" math="0" shadow="0">
      <root>
        <mxCell id="0" />
        <mxCell id="1" parent="0" />
        <mxCell id="pFH3sbqLXHjy62myBytJ-1" value="" style="verticalLabelPosition=bottom;verticalAlign=top;html=1;shape=mxgraph.basic.partConcEllipse;fillColor=#10739e;strokeColor=#ffffff;startAngle=0.75;endAngle=0.008457717900538847;arcWidth=0.16;strokeWidth=3;rotation=105;" vertex="1" parent="1">
          <mxGeometry x="130" y="130" width="260" height="260" as="geometry" />
        </mxCell>
        <mxCell id="pFH3sbqLXHjy62myBytJ-2" value="" style="verticalLabelPosition=bottom;verticalAlign=top;html=1;shape=mxgraph.basic.partConcEllipse;fillColor=#f2931e;strokeColor=#ffffff;startAngle=0.91;endAngle=0.17;arcWidth=0.18;strokeWidth=3;rotation=72;" vertex="1" parent="1">
          <mxGeometry x="150" y="150" width="220" height="220" as="geometry" />
        </mxCell>
        <mxCell id="pFH3sbqLXHjy62myBytJ-3" value="" style="verticalLabelPosition=bottom;verticalAlign=top;html=1;shape=mxgraph.basic.partConcEllipse;fillColor=#ae4132;strokeColor=#ffffff;startAngle=0.75;endAngle=0.11;arcWidth=0.22;strokeWidth=3;rotation=-180;" vertex="1" parent="1">
          <mxGeometry x="170" y="170" width="180" height="180" as="geometry" />
        </mxCell>
        <mxCell id="pFH3sbqLXHjy62myBytJ-4" value="" style="verticalLabelPosition=bottom;verticalAlign=top;html=1;shape=mxgraph.basic.partConcEllipse;fillColor=#12aab5;strokeColor=#ffffff;startAngle=0.02;endAngle=0.4952267833287348;arcWidth=0.29;strokeWidth=3;direction=south;rotation=72;" vertex="1" parent="1">
          <mxGeometry x="190" y="190" width="140" height="140" as="geometry" />
        </mxCell>
        <mxCell id="pFH3sbqLXHjy62myBytJ-5" value="" style="verticalLabelPosition=bottom;verticalAlign=top;html=1;shape=mxgraph.basic.partConcEllipse;fillColor=#cccccc;strokeColor=#ffffff;startAngle=0.75;endAngle=0.25;arcWidth=0.4;strokeWidth=3;" vertex="1" parent="1">
          <mxGeometry x="210" y="210" width="100" height="100" as="geometry" />
        </mxCell>
        <mxCell id="pFH3sbqLXHjy62myBytJ-6" value="2018" style="html=1;shape=mxgraph.basic.pie;fillColor=#23445D;strokeColor=#ffffff;startAngle=0.75;endAngle=0.25;fontSize=16;fontColor=#FFFFFF;verticalAlign=top;fontStyle=1;strokeWidth=3;" vertex="1" parent="1">
          <mxGeometry x="230" y="230" width="60" height="60" as="geometry" />
        </mxCell>
        <mxCell id="pFH3sbqLXHjy62myBytJ-7" value="1" style="shape=mxgraph.infographic.parallelogram;dx=5;html=1;fillColor=#10739E;strokeColor=none;shadow=0;fontSize=17;fontColor=#FFFFFF;align=center;fontStyle=1;whiteSpace=wrap;" vertex="1" parent="1">
          <mxGeometry x="50" y="40" width="50" height="30" as="geometry" />
        </mxCell>
        <mxCell id="pFH3sbqLXHjy62myBytJ-8" value="Gesellschaft" style="shape=mxgraph.infographic.parallelogram;dx=5;;html=1;fillColor=#10739e;strokeColor=none;shadow=0;fontSize=17;fontColor=#FFFFFF;align=left;spacingLeft=10;fontStyle=1;whiteSpace=wrap;" vertex="1" parent="1">
          <mxGeometry x="225" y="110" width="125" height="30" as="geometry" />
        </mxCell>
        <mxCell id="pFH3sbqLXHjy62myBytJ-12" value="Daten" style="shape=mxgraph.infographic.parallelogram;dx=5;;html=1;fillColor=#ae4132;strokeColor=none;shadow=0;fontSize=17;fontColor=#FFFFFF;align=left;spacingLeft=10;fontStyle=1;whiteSpace=wrap;" vertex="1" parent="1">
          <mxGeometry x="300" y="330" width="125" height="30" as="geometry" />
        </mxCell>
        <mxCell id="pFH3sbqLXHjy62myBytJ-30" value="" style="verticalLabelPosition=bottom;verticalAlign=top;html=1;shape=mxgraph.basic.partConcEllipse;fillColor=#10739e;strokeColor=#ffffff;startAngle=0.75;endAngle=0.9309678170563551;arcWidth=0.16;strokeWidth=3;rotation=105;" vertex="1" parent="1">
          <mxGeometry x="514" y="57" width="260" height="260" as="geometry" />
        </mxCell>
        <mxCell id="pFH3sbqLXHjy62myBytJ-31" value="" style="verticalLabelPosition=bottom;verticalAlign=top;html=1;shape=mxgraph.basic.partConcEllipse;fillColor=#f2931e;strokeColor=#ffffff;startAngle=0.75;endAngle=0.950899698059296;arcWidth=0.16;strokeWidth=3;rotation=-195;" vertex="1" parent="1">
          <mxGeometry x="516" y="66" width="260" height="260" as="geometry" />
        </mxCell>
        <mxCell id="pFH3sbqLXHjy62myBytJ-32" value="" style="verticalLabelPosition=bottom;verticalAlign=top;html=1;shape=mxgraph.basic.partConcEllipse;fillColor=#ae4132;strokeColor=#ffffff;startAngle=0.75;endAngle=0.981653234731239;arcWidth=0.16;strokeWidth=3;rotation=-135;" vertex="1" parent="1">
          <mxGeometry x="518" y="63" width="260" height="260" as="geometry" />
        </mxCell>
        <mxCell id="pFH3sbqLXHjy62myBytJ-33" value="" style="verticalLabelPosition=bottom;verticalAlign=top;html=1;shape=mxgraph.basic.partConcEllipse;fillColor=#12aab5;strokeColor=#ffffff;startAngle=0.75;endAngle=0.9841372412847232;arcWidth=0.16;strokeWidth=3;rotation=-50;" vertex="1" parent="1">
          <mxGeometry x="522" y="65" width="260" height="260" as="geometry" />
        </mxCell>
        <mxCell id="pFH3sbqLXHjy62myBytJ-34" value="" style="verticalLabelPosition=bottom;verticalAlign=top;html=1;shape=mxgraph.basic.partConcEllipse;fillColor=#cccccc;strokeColor=#ffffff;startAngle=0.75;endAngle=0.942899874390046;arcWidth=0.16;strokeWidth=3;rotation=30;" vertex="1" parent="1">
          <mxGeometry x="525" y="60" width="260" height="260" as="geometry" />
        </mxCell>
        <mxCell id="pFH3sbqLXHjy62myBytJ-35" value="Gesellschaft" style="shape=mxgraph.infographic.parallelogram;dx=5;;html=1;fillColor=#10739e;strokeColor=none;shadow=0;fontSize=17;fontColor=#FFFFFF;align=left;spacingLeft=10;fontStyle=1;whiteSpace=wrap;" vertex="1" parent="1">
          <mxGeometry x="740" y="140" width="125" height="30" as="geometry" />
        </mxCell>
        <mxCell id="pFH3sbqLXHjy62myBytJ-36" value="Technologie" style="shape=mxgraph.infographic.parallelogram;dx=5;;html=1;fillColor=#f2931e;strokeColor=none;shadow=0;fontSize=17;fontColor=#FFFFFF;align=left;spacingLeft=10;fontStyle=1;whiteSpace=wrap;" vertex="1" parent="1">
          <mxGeometry x="710" y="260" width="125" height="30" as="geometry" />
        </mxCell>
        <mxCell id="pFH3sbqLXHjy62myBytJ-37" value="Daten" style="shape=mxgraph.infographic.parallelogram;dx=5;;html=1;fillColor=#ae4132;strokeColor=none;shadow=0;fontSize=17;fontColor=#FFFFFF;align=left;spacingLeft=10;fontStyle=1;whiteSpace=wrap;" vertex="1" parent="1">
          <mxGeometry x="560" y="270" width="125" height="30" as="geometry" />
        </mxCell>
        <mxCell id="pFH3sbqLXHjy62myBytJ-38" value="Wissen" style="shape=mxgraph.infographic.parallelogram;dx=5;;html=1;fillColor=#12aab5;strokeColor=none;shadow=0;fontSize=17;fontColor=#FFFFFF;align=left;spacingLeft=10;fontStyle=1;whiteSpace=wrap;" vertex="1" parent="1">
          <mxGeometry x="518" y="120" width="125" height="30" as="geometry" />
        </mxCell>
        <mxCell id="pFH3sbqLXHjy62myBytJ-39" value="Erkenntnis" style="shape=mxgraph.infographic.parallelogram;dx=5;;html=1;fillColor=#cccccc;strokeColor=none;shadow=0;fontSize=17;fontColor=#FFFFFF;align=left;spacingLeft=10;fontStyle=1;whiteSpace=wrap;" vertex="1" parent="1">
          <mxGeometry x="643" y="57" width="125" height="30" as="geometry" />
        </mxCell>
      </root>
    </mxGraphModel>
  </diagram>
</mxfile>
